<svg xmlns="http://www.w3.org/2000/svg" width="394.684" height="81.089" viewBox="0 0 394.684 81.089">
  <g id="Group_770" data-name="Group 770" transform="translate(-230.568 -258.789)">
    <path id="Path_618" data-name="Path 618" d="M322.133,337.748H293.049L275.4,306.967H304.47Z" transform="translate(1.917 2.128)" fill="#97144d"/>
    <path id="Path_619" data-name="Path 619" d="M277.214,258.789l14.572,25.09-32.2,56H230.568Z" transform="translate(0)" fill="#97144d"/>
    <g id="Group_620" data-name="Group 620" transform="translate(321.247 279.682)">
      <g id="Group_619" data-name="Group 619" transform="translate(0 0)">
        <path id="Path_620" data-name="Path 620" d="M340.609,301.843H326.2l-3.493,6.385h-5.46l16.34-29.43,16.019,29.43h-5.54Zm-12.286-4.015h10.238l-5.018-9.715Zm32.641-4.457-9.556-13.53h5.861l6.665,9.8,6.7-9.8h5.781l-9.676,13.57,10.479,14.816h-5.861l-7.549-10.921-7.628,10.921h-5.9Zm20.716-13.53h5.1v28.386h-5.1Zm26.258,6.464a6.063,6.063,0,0,0-2.209-2.188,6.635,6.635,0,0,0-3.212-.7,4.951,4.951,0,0,0-3.313.983,3.123,3.123,0,0,0-1.144,2.469q0,2.49,3.654,3.533l3.412,1a12.912,12.912,0,0,1,6.082,3.352,7.361,7.361,0,0,1,1.948,5.119,8.368,8.368,0,0,1-.742,3.513,8.09,8.09,0,0,1-2.128,2.81,10.3,10.3,0,0,1-3.353,1.868,13.293,13.293,0,0,1-4.375.682,12.253,12.253,0,0,1-7.668-2.168,9.088,9.088,0,0,1-3.373-6.263l4.979-.924a6.357,6.357,0,0,0,1.986,3.995,6.107,6.107,0,0,0,4.076,1.3,5.8,5.8,0,0,0,4.015-1.265,4.2,4.2,0,0,0,1.4-3.271,4.294,4.294,0,0,0-.361-1.848,4.135,4.135,0,0,0-1.024-1.344,6.129,6.129,0,0,0-1.566-.984,17.615,17.615,0,0,0-1.947-.723l-3.292-.964a11.125,11.125,0,0,1-5.22-2.91,6.5,6.5,0,0,1-1.686-4.517,6.681,6.681,0,0,1,2.63-5.4,9.724,9.724,0,0,1,3.012-1.545,12.754,12.754,0,0,1,3.915-.562,11.955,11.955,0,0,1,6.022,1.345,8.7,8.7,0,0,1,3.493,3.633Z" transform="translate(-317.243 -278.798)" fill="#97144d"/>
        <path id="Path_621" data-name="Path 621" d="M427.783,279.8h18.106v4.255H432.882v7.509h11.844v4.255H432.882v12.366h-5.1Z" transform="translate(-312.517 -278.755)" fill="#97144d"/>
        <path id="Path_622" data-name="Path 622" d="M450.422,279.8h5.1v28.386h-5.1Z" transform="translate(-311.548 -278.755)" fill="#97144d"/>
        <path id="Path_623" data-name="Path 623" d="M466.571,289.427v18.79h-5.1V279.029L485.8,298.783V279.832h5.1V309.18Z" transform="translate(-311.076 -278.788)" fill="#97144d"/>
        <path id="Path_624" data-name="Path 624" d="M516.41,301.843H502l-3.492,6.385h-5.461l16.341-29.43,16.019,29.43h-5.54Zm-12.286-4.015h10.238l-5.019-9.715Z" transform="translate(-309.726 -278.798)" fill="#97144d"/>
        <path id="Path_625" data-name="Path 625" d="M532.525,289.427v18.79h-5.1V279.029l24.33,19.754V279.832h5.1V309.18Z" transform="translate(-308.256 -278.788)" fill="#97144d"/>
        <path id="Path_626" data-name="Path 626" d="M588.484,301.307a12.173,12.173,0,0,1-4.818,5.46,15,15,0,0,1-8.07,2.048,17.542,17.542,0,0,1-6.022-1,13.313,13.313,0,0,1-7.97-7.608,16.131,16.131,0,0,1-1.145-6.243,15.444,15.444,0,0,1,1.1-5.882,13.919,13.919,0,0,1,3.112-4.7,14.313,14.313,0,0,1,4.819-3.112,16.492,16.492,0,0,1,6.182-1.124,15.1,15.1,0,0,1,7.467,1.686,12.141,12.141,0,0,1,4.617,4.375l-3.733,2.449a9.679,9.679,0,0,0-3.674-3.171,10.739,10.739,0,0,0-4.678-1,10.277,10.277,0,0,0-4.135.8,9.313,9.313,0,0,0-3.151,2.209,9.734,9.734,0,0,0-2.007,3.312,11.915,11.915,0,0,0-.7,4.155,12.144,12.144,0,0,0,.742,4.357,9.592,9.592,0,0,0,2.068,3.312,9.123,9.123,0,0,0,3.151,2.108,10.5,10.5,0,0,0,3.995.742,9.413,9.413,0,0,0,5.34-1.445,10.141,10.141,0,0,0,3.413-3.855Z" transform="translate(-306.844 -278.783)" fill="#97144d"/>
        <path id="Path_627" data-name="Path 627" d="M591.571,279.8h17.906v4.255H596.669v7.268h11.643v4.256H596.669v8.35h12.849v4.257H591.571Z" transform="translate(-305.513 -278.755)" fill="#97144d"/>
      </g>
    </g>
  </g>
</svg>
