<svg xmlns="http://www.w3.org/2000/svg" width="243.95" height="50.12" viewBox="0 0 243.95 50.12"><defs><style>.a{fill:#fff;}</style></defs><g transform="translate(-230.568 -258.789)"><path class="a" d="M304.284,325.992H286.308L275.4,306.967h17.969Z" transform="translate(-15.936 -17.084)"/><path class="a" d="M259.4,258.789l9.007,15.508-19.9,34.612H230.568Z" transform="translate(0)"/><g transform="translate(286.616 271.702)"><g transform="translate(0 0)"><path class="a" d="M331.685,293.042h-8.909l-2.159,3.946h-3.375l10.1-18.19,9.9,18.19h-3.424Zm-7.594-2.481h6.328l-3.1-6Zm20.175-2.755-5.906-8.363h3.623l4.12,6.055,4.144-6.055h3.573l-5.98,8.388,6.477,9.157h-3.623l-4.666-6.75-4.715,6.75h-3.648Zm12.8-8.363h3.152v17.545h-3.152Zm16.23,4a3.748,3.748,0,0,0-1.365-1.352,4.1,4.1,0,0,0-1.985-.434,3.06,3.06,0,0,0-2.048.608,1.931,1.931,0,0,0-.707,1.526q0,1.539,2.258,2.184l2.109.621a7.981,7.981,0,0,1,3.759,2.072,4.55,4.55,0,0,1,1.2,3.164,5.172,5.172,0,0,1-.459,2.171,5,5,0,0,1-1.315,1.737,6.366,6.366,0,0,1-2.072,1.154,8.216,8.216,0,0,1-2.7.422,7.574,7.574,0,0,1-4.74-1.34,5.617,5.617,0,0,1-2.085-3.871l3.078-.571A3.929,3.929,0,0,0,367.457,294a3.775,3.775,0,0,0,2.519.806,3.585,3.585,0,0,0,2.481-.782,2.6,2.6,0,0,0,.868-2.022,2.654,2.654,0,0,0-.223-1.142,2.554,2.554,0,0,0-.633-.831,3.789,3.789,0,0,0-.968-.608,10.892,10.892,0,0,0-1.2-.447l-2.035-.6a6.877,6.877,0,0,1-3.226-1.8A4.02,4.02,0,0,1,364,283.786a4.129,4.129,0,0,1,1.625-3.338,6.01,6.01,0,0,1,1.861-.955,7.884,7.884,0,0,1,2.42-.347,7.389,7.389,0,0,1,3.722.831,5.378,5.378,0,0,1,2.159,2.246Z" transform="translate(-317.243 -278.798)"/><path class="a" d="M427.783,279.8h11.191v2.63h-8.04v4.641h7.32v2.63h-7.32v7.643h-3.152Z" transform="translate(-356.538 -279.154)"/><path class="a" d="M450.422,279.8h3.152v17.545h-3.152Z" transform="translate(-364.586 -279.154)"/><path class="a" d="M464.624,285.456V297.07h-3.152V279.029l15.039,12.21V279.525h3.151v18.14Z" transform="translate(-368.514 -278.88)"/><path class="a" d="M507.486,293.042h-8.909l-2.158,3.946h-3.375l10.1-18.19,9.9,18.19H509.62Zm-7.594-2.481h6.328l-3.1-6Z" transform="translate(-379.737 -278.798)"/><path class="a" d="M530.578,285.456V297.07h-3.152V279.029l15.038,12.21V279.525h3.152v18.14Z" transform="translate(-391.959 -278.88)"/><path class="a" d="M577.781,292.843a7.524,7.524,0,0,1-2.978,3.375,9.27,9.27,0,0,1-4.988,1.266,10.843,10.843,0,0,1-3.722-.621,8.229,8.229,0,0,1-4.926-4.7,9.97,9.97,0,0,1-.708-3.859,9.546,9.546,0,0,1,.683-3.636,8.6,8.6,0,0,1,1.923-2.9,8.847,8.847,0,0,1,2.978-1.923,10.194,10.194,0,0,1,3.821-.695,9.335,9.335,0,0,1,4.615,1.042,7.5,7.5,0,0,1,2.854,2.7l-2.307,1.514a5.983,5.983,0,0,0-2.271-1.96,6.638,6.638,0,0,0-2.891-.621,6.352,6.352,0,0,0-2.556.5,5.756,5.756,0,0,0-1.948,1.365,6.016,6.016,0,0,0-1.241,2.047,7.363,7.363,0,0,0-.434,2.568,7.506,7.506,0,0,0,.459,2.693,5.93,5.93,0,0,0,1.278,2.047,5.637,5.637,0,0,0,1.948,1.3,6.493,6.493,0,0,0,2.469.459,5.818,5.818,0,0,0,3.3-.893,6.268,6.268,0,0,0,2.11-2.383Z" transform="translate(-403.702 -278.921)"/><path class="a" d="M591.571,279.8h11.068v2.63h-7.917v4.492h7.2v2.63h-7.2v5.161h7.942v2.631H591.571Z" transform="translate(-414.762 -279.154)"/></g></g></g></svg>