<svg xmlns="http://www.w3.org/2000/svg" width="23" height="22.459" viewBox="0 0 23 22.459"><defs><style>.a{fill:#fff;}.b{fill:none;stroke:#fff;stroke-width:1.4px;}</style></defs><g transform="translate(-5551 -21414.541)"><path class="a" d="M4,0H6A0,0,0,0,1,6,0V8A0,0,0,0,1,6,8H4A4,4,0,0,1,0,4V4A4,4,0,0,1,4,0Z" transform="translate(5551 21423)"/><path class="a" d="M0,0H2A4,4,0,0,1,6,4V4A4,4,0,0,1,2,8H0A0,0,0,0,1,0,8V0A0,0,0,0,1,0,0Z" transform="translate(5568 21423)"/><path class="b" d="M5534.252,21441.975s-.849-8.732,8.161-8.732,7.3,8.732,7.3,8.732" transform="translate(20.517 -18.002)"/><path class="b" d="M5534.25,21433.238s-.426,7.281,8.584,7.281" transform="translate(19.359 -5.239)"/><circle class="a" cx="2" cy="2" r="2" transform="translate(5560 21433)"/></g></svg>