<svg xmlns="http://www.w3.org/2000/svg" width="26.205" height="28.19" viewBox="0 0 26.205 28.19"><defs><style>.a{fill:#fff;stroke:#fff;stroke-width:0.4px;}</style></defs><g transform="translate(-16.866 0.2)"><g transform="translate(17.066 17.865)"><path class="a" d="M41.879,307.2a.993.993,0,0,0-.993.993v5.955a.993.993,0,0,1-.993.993H20.044a.993.993,0,0,1-.993-.993v-5.955a.993.993,0,1,0-1.985,0v5.955a2.978,2.978,0,0,0,2.978,2.978h19.85a2.978,2.978,0,0,0,2.978-2.978v-5.955A.993.993,0,0,0,41.879,307.2Z" transform="translate(-17.066 -307.2)"/></g><g transform="translate(24.026)"><g transform="translate(0)"><path class="a" d="M148.327,17.164a.993.993,0,0,0-1.379,0l-3.27,3.268V.993a.993.993,0,1,0-1.985,0V20.432l-3.268-3.268a.992.992,0,0,0-1.4,1.4l4.963,4.963a.993.993,0,0,0,1.4,0l0,0,4.963-4.963A.992.992,0,0,0,148.327,17.164Z" transform="translate(-136.742)"/></g></g></g></svg>