<svg xmlns="http://www.w3.org/2000/svg" width="22" height="29" viewBox="0 0 22 29">
  <g id="Group_584" data-name="Group 584" transform="translate(-1123 -424)">
    <g id="Rectangle_12" data-name="Rectangle 12" transform="translate(1123 434)" fill="none" stroke="#fff" stroke-width="1.5">
      <rect width="22" height="19" rx="6" stroke="none"/>
      <rect x="0.75" y="0.75" width="20.5" height="17.5" rx="5.25" fill="none"/>
    </g>
    <g id="Path_606" data-name="Path 606" transform="translate(1130 439)" fill="none">
      <path d="M4,0A4,4,0,1,1,0,4,4,4,0,0,1,4,0Z" stroke="none"/>
      <path d="M 4 1.5 C 2.621500015258789 1.5 1.5 2.621500015258789 1.5 4 C 1.5 5.378499984741211 2.621500015258789 6.5 4 6.5 C 5.378499984741211 6.5 6.5 5.378499984741211 6.5 4 C 6.5 2.621500015258789 5.378499984741211 1.5 4 1.5 M 4 0 C 6.209139823913574 0 8 1.790860176086426 8 4 C 8 6.209139823913574 6.209139823913574 8 4 8 C 1.790860176086426 8 0 6.209139823913574 0 4 C 0 1.790860176086426 1.790860176086426 0 4 0 Z" stroke="none" fill="#fff"/>
    </g>
    <g id="Path_605" data-name="Path 605" transform="translate(1128.5 424)" fill="none">
      <path d="M5.68,0a5.874,5.874,0,0,1,5.68,6.05v5.5H0V6.05A5.874,5.874,0,0,1,5.68,0Z" stroke="none"/>
      <path d="M 5.679931640625 1.5 C 3.37511157989502 1.5 1.500001907348633 3.541120529174805 1.500001907348633 6.050000190734863 L 1.500001907348633 10.05000019073486 L 9.859861373901367 10.05000019073486 L 9.859861373901367 6.050000190734863 C 9.859861373901367 3.541120529174805 7.98475170135498 1.5 5.679931640625 1.5 M 5.679931640625 0 C 8.816871643066406 0 11.35986137390137 2.708680152893066 11.35986137390137 6.050000190734863 L 11.35986137390137 11.55000019073486 L 1.9073486328125e-06 11.55000019073486 L 1.9073486328125e-06 6.050000190734863 C 1.9073486328125e-06 2.708680152893066 2.542991638183594 0 5.679931640625 0 Z" stroke="none" fill="#fff"/>
    </g>
  </g>
</svg>
