<svg xmlns="http://www.w3.org/2000/svg" width="24.477" height="34.633" viewBox="0 0 24.477 34.633"><defs><style>.a,.b,.c{fill:#ed1164;}.a,.c{stroke:#ed1164;}.a{stroke-width:0.8px;}.c{stroke-width:0.4px;}</style></defs><g transform="translate(0.38 0.398)"><path class="a" d="M23.141,33.872H.581a.561.561,0,0,1-.562-.562V.6A.561.561,0,0,1,.581.039H18.06a.555.555,0,0,1,.4.165l5.075,5.075a.566.566,0,0,1,.165.4V33.3A.553.553,0,0,1,23.141,33.872ZM1.15,32.743H22.58V5.914L17.835,1.169H1.15Zm0,0" transform="translate(0 -0.037)"/><path class="b" d="M270.258,6.207h-5.075a.561.561,0,0,1-.562-.562V.563a.568.568,0,0,1,.35-.522.559.559,0,0,1,.614.125l5.075,5.075a.572.572,0,0,1,.126.615A.592.592,0,0,1,270.258,6.207Zm-4.513-1.13H268.9l-3.152-3.152Zm0,0" transform="translate(-247.117 0)"/><path class="c" d="M100.021,95.7c-.25-.476-.862-.711-1.867-.711a12.665,12.665,0,0,0-2.162.227,20.232,20.232,0,0,1-3.274-4.8c.136-.567.265-1.142.363-1.716a5.909,5.909,0,0,0,.106-2.124,1.648,1.648,0,0,0-.4-.718c-.159-.174-.378-.416-.635-.416a3.337,3.337,0,0,0-.65.106,1.229,1.229,0,0,0-.726.771c-.454,1.051.166,2.835.809,4.219a42.58,42.58,0,0,1-2.434,6.827c-2.434,1.1-3.727,2.185-3.848,3.221a1.494,1.494,0,0,0,.718,1.421,1.032,1.032,0,0,0,.62.2c.559,0,1.134-.423,1.792-1.338a18.141,18.141,0,0,0,1.535-2.7,31.331,31.331,0,0,1,5.678-1.792,4.31,4.31,0,0,0,2.707,1.452,1.733,1.733,0,0,0,1.429-.756A1.266,1.266,0,0,0,100.021,95.7Zm-13.367,5.436c-.3-.227-.28-.378-.28-.438.038-.356.6-.983,1.973-1.739C87.312,100.857,86.753,101.107,86.654,101.137Zm5.277-14.554c.03-.007.673.7.061,2.041A1.505,1.505,0,0,1,91.932,86.583ZM90.6,96.759a43.808,43.808,0,0,0,1.716-4.8,21.709,21.709,0,0,0,2.457,3.523A31.476,31.476,0,0,0,90.6,96.759Zm8.294-.3a.979.979,0,0,1-.778.28c-.34,0-.469-.2-1-.6a9.7,9.7,0,0,1,1.164-.068c.574,0,.68.083.756.129A.836.836,0,0,1,98.895,96.457Zm0,0" transform="translate(-81.293 -75.523)"/></g></svg>