<svg xmlns="http://www.w3.org/2000/svg" width="22.43" height="22.43" viewBox="0 0 22.43 22.43"><defs><style>.a{fill:#fff;stroke:#fff;stroke-width:0.6px;}</style></defs><g transform="translate(0.3 0.3)"><path class="a" d="M9.613,0a9.613,9.613,0,1,0,9.613,9.613A9.625,9.625,0,0,0,9.613,0Zm0,17.452a7.839,7.839,0,1,1,7.839-7.839A7.848,7.848,0,0,1,9.613,17.452Z"/><g transform="translate(14.967 14.967)"><path class="a" d="M357.648,356.393l-5.088-5.088a.887.887,0,1,0-1.255,1.255l5.088,5.088a.887.887,0,0,0,1.255-1.255Z" transform="translate(-351.046 -351.046)"/></g></g></svg>