<svg xmlns="http://www.w3.org/2000/svg" width="378.214" height="77.698" viewBox="0 0 378.214 77.698">
  <g id="Group_893" data-name="Group 893" transform="translate(-230.568 -258.789)">
    <path id="Path_941" data-name="Path 941" d="M320.217,336.486H292.325L275.4,306.967h27.88Z" fill="#fff"/>
    <path id="Path_942" data-name="Path 942" d="M275.3,258.789l13.975,24.041-30.883,53.657H230.568Z" fill="#fff"/>
    <g id="Group_889" data-name="Group 889">
      <g id="Group_888" data-name="Group 888">
        <path id="Path_943" data-name="Path 943" d="M339.651,300.9H325.829l-3.35,6.123h-5.236l15.67-28.223,15.362,28.223h-5.313Zm-11.782-3.85h9.818l-4.812-9.317Zm31.3-4.274L350.008,279.8h5.621l6.392,9.395,6.43-9.395h5.544l-9.279,13.014,10.049,14.208h-5.621L361.9,296.548l-7.315,10.473h-5.66ZM379.039,279.8h4.89v27.222h-4.89ZM404.22,286a5.814,5.814,0,0,0-2.118-2.1,6.363,6.363,0,0,0-3.08-.674,4.748,4.748,0,0,0-3.177.943,3,3,0,0,0-1.1,2.368q0,2.388,3.5,3.388l3.272.963a12.382,12.382,0,0,1,5.833,3.215,7.059,7.059,0,0,1,1.868,4.909,8.024,8.024,0,0,1-.712,3.369,7.756,7.756,0,0,1-2.041,2.695,9.876,9.876,0,0,1-3.215,1.791,12.747,12.747,0,0,1-4.2.654,11.752,11.752,0,0,1-7.354-2.079,8.716,8.716,0,0,1-3.235-6.006l4.775-.886a6.1,6.1,0,0,0,1.9,3.831,5.857,5.857,0,0,0,3.909,1.251,5.563,5.563,0,0,0,3.85-1.213,4.026,4.026,0,0,0,1.347-3.137,4.117,4.117,0,0,0-.346-1.772,3.962,3.962,0,0,0-.982-1.289,5.878,5.878,0,0,0-1.5-.944,16.907,16.907,0,0,0-1.867-.693l-3.157-.924a10.67,10.67,0,0,1-5.006-2.791,6.236,6.236,0,0,1-1.617-4.332,6.407,6.407,0,0,1,2.522-5.179,9.325,9.325,0,0,1,2.888-1.482,12.233,12.233,0,0,1,3.754-.539,11.464,11.464,0,0,1,5.775,1.29,8.344,8.344,0,0,1,3.35,3.484Z" fill="#fff"/>
        <path id="Path_944" data-name="Path 944" d="M427.783,279.8h17.364v4.081H432.673v7.2h11.358v4.081H432.673v11.859h-4.89Z" fill="#fff"/>
        <path id="Path_945" data-name="Path 945" d="M450.422,279.8h4.89v27.222h-4.89Z" fill="#fff"/>
        <path id="Path_946" data-name="Path 946" d="M466.362,289v18.02h-4.89V279.029L484.8,297.973V279.8h4.889v28.145Z" fill="#fff"/>
        <path id="Path_947" data-name="Path 947" d="M515.452,300.9H501.629l-3.349,6.123h-5.237L508.714,278.8l15.362,28.223h-5.313Zm-11.782-3.85h9.818l-4.813-9.317Z" fill="#fff"/>
        <path id="Path_948" data-name="Path 948" d="M532.316,289v18.02h-4.89V279.029l23.332,18.944V279.8h4.891v28.145Z" fill="#fff"/>
        <path id="Path_949" data-name="Path 949" d="M587.335,300.4a11.673,11.673,0,0,1-4.62,5.236,14.382,14.382,0,0,1-7.739,1.964,16.824,16.824,0,0,1-5.775-.963,12.767,12.767,0,0,1-7.643-7.3,15.47,15.47,0,0,1-1.1-5.987,14.812,14.812,0,0,1,1.059-5.641,13.349,13.349,0,0,1,2.984-4.5,13.728,13.728,0,0,1,4.621-2.984,15.816,15.816,0,0,1,5.929-1.078,14.483,14.483,0,0,1,7.161,1.617,11.643,11.643,0,0,1,4.428,4.2l-3.58,2.349a9.283,9.283,0,0,0-3.523-3.041,10.3,10.3,0,0,0-4.486-.963,9.856,9.856,0,0,0-3.966.77,8.929,8.929,0,0,0-3.022,2.118,9.335,9.335,0,0,0-1.925,3.176,11.424,11.424,0,0,0-.674,3.985,11.645,11.645,0,0,0,.712,4.178,9.2,9.2,0,0,0,1.983,3.176,8.748,8.748,0,0,0,3.022,2.022,10.075,10.075,0,0,0,3.831.712,9.026,9.026,0,0,0,5.121-1.386,9.726,9.726,0,0,0,3.273-3.7Z" fill="#fff"/>
        <path id="Path_950" data-name="Path 950" d="M591.571,279.8h17.172v4.081H596.46v6.97h11.166v4.081H596.46v8.008h12.322v4.082H591.571Z" fill="#fff"/>
      </g>
    </g>
  </g>
</svg>
